<?xml version="1.0" standalone="no"?>
<!DOCTYPE svg PUBLIC "-//W3C//DTD SVG 20010904//EN"
 "http://www.w3.org/TR/2001/REC-SVG-20010904/DTD/svg10.dtd">
<svg version="1.0" xmlns="http://www.w3.org/2000/svg"
 width="375.000000pt" height="255.000000pt" viewBox="0 0 375.000000 255.000000"
 preserveAspectRatio="xMidYMid meet">

<g transform="translate(0.000000,255.000000) scale(0.100000,-0.100000)"
fill="#000000" stroke="none">
<path d="M0 1275 l0 -1275 1875 0 1875 0 0 1275 0 1275 -1875 0 -1875 0 0
-1275z m652 3 c31 -84 60 -161 63 -170 6 -16 0 -18 -49 -18 -55 0 -57 1 -62
30 -6 29 -8 30 -69 30 -61 0 -63 -1 -68 -30 -6 -29 -8 -30 -61 -30 l-55 0 24
63 c13 34 41 110 62 170 l38 107 60 0 61 0 56 -152z m198 -18 l0 -170 -50 0
-50 0 0 170 0 170 50 0 50 0 0 -170z m609 152 c60 -30 76 -63 76 -152 0 -132
-46 -170 -207 -170 l-98 0 0 170 0 170 98 0 c73 0 106 -4 131 -18z m1841 -152
l0 -170 -50 0 -50 0 0 170 0 170 50 0 50 0 0 -170z m-2182 60 c33 -20 62 -71
62 -110 0 -19 -6 -20 -95 -20 -52 0 -95 -4 -95 -9 0 -15 30 -41 46 -41 9 0 24
5 35 11 12 6 37 8 60 4 35 -6 38 -9 28 -27 -23 -44 -127 -62 -194 -34 -87 37
-87 188 -1 230 44 22 114 20 154 -4z m650 11 c21 -13 -6 -61 -33 -61 -35 0
-46 -23 -52 -104 l-6 -76 -43 0 -44 0 0 120 0 120 45 0 c29 0 45 -4 45 -12 0
-8 6 -6 17 5 18 18 50 22 71 8z m227 -5 c41 -17 65 -60 65 -116 0 -87 -59
-136 -153 -127 -42 4 -56 10 -84 41 -28 30 -33 43 -33 85 0 39 6 56 27 81 14
18 36 36 47 40 33 13 93 11 131 -4z m255 -3 c17 -12 25 -13 28 -5 2 7 21 12
43 12 l39 0 0 -140 c0 -135 -1 -142 -24 -165 -47 -47 -173 -47 -213 0 -38 44
-31 58 23 50 26 -4 55 -12 66 -18 26 -17 52 3 56 43 3 32 3 32 -20 16 -43 -30
-109 -13 -134 35 -8 16 -14 51 -14 79 0 44 5 56 29 81 34 34 83 39 121 12z
m365 3 c41 -17 65 -60 65 -116 0 -87 -59 -136 -153 -127 -42 4 -56 10 -84 41
-28 30 -33 43 -33 85 0 39 6 56 27 81 14 18 36 36 47 40 33 13 93 11 131 -4z
m486 4 c63 -34 72 -178 13 -228 -27 -24 -73 -27 -116 -8 -16 7 -18 2 -18 -43
l0 -51 -45 0 -45 0 0 165 0 165 45 0 c25 0 45 -5 45 -11 0 -5 10 -3 22 5 26
18 71 21 99 6z m-271 -195 l0 -45 -50 0 -50 0 0 45 0 45 50 0 50 0 0 -45z"/>
<path d="M521 1302 c-7 -24 -15 -50 -18 -58 -4 -11 4 -14 32 -14 40 0 39 -4
10 80 l-12 35 -12 -43z"/>
<path d="M1330 1260 l0 -90 33 0 c17 0 37 4 44 8 20 13 35 65 28 102 -9 48
-31 70 -72 70 l-33 0 0 -90z"/>
<path d="M1002 1268 c-21 -21 -13 -28 33 -28 25 0 45 4 45 8 0 15 -24 32 -45
32 -12 0 -26 -5 -33 -12z"/>
<path d="M1896 1258 c-31 -43 -9 -118 34 -118 24 0 40 29 40 70 0 66 -43 93
-74 48z"/>
<path d="M2200 1261 c-31 -59 16 -131 58 -89 28 28 7 108 -28 108 -11 0 -24
-9 -30 -19z"/>
<path d="M2516 1258 c-31 -43 -9 -118 34 -118 24 0 40 29 40 70 0 66 -43 93
-74 48z"/>
<path d="M2996 1258 c-22 -30 -20 -71 3 -99 28 -34 55 -16 59 39 5 72 -30 106
-62 60z"/>
</g>
</svg>
